<svg width="248" height="400" viewBox="0 0 248 400" fill="none" xmlns="http://www.w3.org/2000/svg">
<path d="M248 399.533H68L172.746 329.438L248 221.757V399.533Z" fill="#2D91FF"/>
<path d="M167.236 357.86C158.472 361.486 149.079 363.352 139.594 363.352V327.277C144.337 327.277 149.033 326.344 153.415 324.531C157.796 322.718 161.778 320.061 165.131 316.711C168.485 313.362 171.145 309.385 172.96 305.008C174.775 300.631 175.709 295.94 175.709 291.203C175.709 281.728 177.577 272.346 181.207 263.593C184.837 254.839 190.158 246.885 196.865 240.186C203.572 233.486 211.535 228.172 220.299 224.546C229.062 220.92 238.455 219.054 247.94 219.054V255.128C243.198 255.128 238.501 256.061 234.119 257.874C229.738 259.687 225.756 262.345 222.403 265.694C219.049 269.044 216.389 273.021 214.574 277.398C212.759 281.775 211.825 286.466 211.825 291.203C211.825 300.678 209.957 310.06 206.327 318.813C202.697 327.567 197.376 335.52 190.669 342.22C183.962 348.92 175.999 354.234 167.236 357.86Z" fill="#2D91FF"/>
<path d="M68 399.533C68 390.072 69.8653 380.704 73.49 371.963C77.1146 363.222 82.4273 355.28 89.1247 348.591C95.8221 341.901 103.773 336.594 112.524 332.974C121.274 329.353 130.653 327.49 140.125 327.49V363.511C135.389 363.511 130.699 364.443 126.324 366.253C121.949 368.063 117.973 370.717 114.625 374.062C111.276 377.407 108.62 381.378 106.807 385.748C104.995 390.118 104.062 394.802 104.062 399.533L68 399.533Z" fill="#2D91FF"/>
<path d="M248 0.478919H0L144.316 97.7872L248 247.275V0.478919Z" fill="#1B72CE"/>
<path d="M136.806 58.1138C124.732 53.097 111.791 50.5149 98.7223 50.5149V100.429C105.257 100.429 111.727 101.72 117.764 104.228C123.801 106.737 129.287 110.413 133.907 115.048C138.528 119.683 142.193 125.186 144.694 131.241C147.194 137.297 148.482 143.788 148.481 150.343C148.481 163.452 151.055 176.433 156.057 188.545C161.058 200.657 168.388 211.662 177.63 220.931C186.871 230.201 197.841 237.555 209.916 242.571C221.99 247.588 234.931 250.17 248 250.17V200.256C241.465 200.256 234.995 198.965 228.958 196.457C222.921 193.949 217.435 190.272 212.815 185.637C208.194 181.002 204.529 175.5 202.028 169.444C199.528 163.388 198.24 156.897 198.24 150.343C198.24 137.233 195.667 124.252 190.665 112.14C185.664 100.029 178.334 89.0236 169.092 79.7537C159.851 70.4839 148.88 63.1306 136.806 58.1138Z" fill="#1B72CE"/>
<path d="M0.0816752 0.454102C0.0816741 13.5444 2.65201 26.5065 7.64592 38.6003C12.6398 50.6942 19.9595 61.6829 29.1871 70.9392C38.4146 80.1954 49.3693 87.5379 61.4257 92.5473C73.4821 97.5567 86.404 100.135 99.4538 100.135L99.4538 50.2946C92.9289 50.2946 86.4679 49.0054 80.4397 46.5007C74.4115 43.996 68.9342 40.3248 64.3204 35.6966C59.7066 31.0685 56.0468 25.5742 53.5498 19.5272C51.0529 13.4803 49.7677 6.99925 49.7677 0.454106L0.0816752 0.454102Z" fill="#1B72CE"/>
</svg>
