<svg width="272" height="420" viewBox="0 0 272 420" fill="none" xmlns="http://www.w3.org/2000/svg">
<path d="M272 419.533H92L196.746 349.438L272 241.757V419.533Z" fill="#275687"/>
<path d="M191.236 377.86C182.472 381.486 173.079 383.352 163.594 383.352V347.277C168.337 347.277 173.033 346.344 177.415 344.531C181.796 342.718 185.778 340.061 189.131 336.711C192.485 333.362 195.145 329.385 196.96 325.008C198.775 320.631 199.709 315.94 199.709 311.203C199.709 301.728 201.577 292.346 205.207 283.593C208.837 274.839 214.158 266.885 220.865 260.186C227.572 253.486 235.535 248.172 244.299 244.546C253.062 240.92 262.455 239.054 271.94 239.054V275.128C267.198 275.128 262.501 276.061 258.119 277.874C253.738 279.687 249.756 282.345 246.403 285.694C243.049 289.044 240.389 293.021 238.574 297.398C236.759 301.775 235.825 306.466 235.825 311.203C235.825 320.678 233.957 330.06 230.327 338.813C226.697 347.567 221.376 355.52 214.669 362.22C207.962 368.92 199.999 374.234 191.236 377.86Z" fill="#275687"/>
<path d="M92 419.533C92 410.072 93.8653 400.704 97.49 391.963C101.115 383.222 106.427 375.28 113.125 368.591C119.822 361.901 127.773 356.594 136.524 352.974C145.274 349.353 154.653 347.49 164.125 347.49V383.511C159.389 383.511 154.699 384.443 150.324 386.253C145.949 388.063 141.973 390.717 138.625 394.062C135.276 397.407 132.62 401.378 130.807 405.748C128.995 410.118 128.062 414.802 128.062 419.533L92 419.533Z" fill="#275687"/>
<g filter="url(#filter0_d_125_191)">
<path d="M272 20.4789H24L168.316 117.787L272 267.275V20.4789Z" fill="#2D91FF"/>
<path d="M160.806 78.1138C148.732 73.097 135.791 70.5149 122.722 70.5149V120.429C129.257 120.429 135.727 121.72 141.764 124.228C147.801 126.737 153.287 130.413 157.907 135.048C162.528 139.683 166.193 145.186 168.694 151.241C171.194 157.297 172.482 163.788 172.481 170.343C172.481 183.452 175.055 196.433 180.057 208.545C185.058 220.657 192.388 231.662 201.63 240.931C210.871 250.201 221.841 257.555 233.916 262.571C245.99 267.588 258.931 270.17 272 270.17V220.256C265.465 220.256 258.995 218.965 252.958 216.457C246.921 213.949 241.435 210.272 236.815 205.637C232.194 201.002 228.529 195.5 226.028 189.444C223.528 183.388 222.24 176.897 222.24 170.343C222.24 157.233 219.667 144.252 214.665 132.14C209.664 120.029 202.334 109.024 193.092 99.7537C183.851 90.4839 172.88 83.1306 160.806 78.1138Z" fill="#2D91FF"/>
<path d="M24.0817 20.4541C24.0817 33.5444 26.652 46.5065 31.6459 58.6003C36.6398 70.6942 43.9595 81.6829 53.1871 90.9392C62.4146 100.195 73.3693 107.538 85.4257 112.547C97.4821 117.557 110.404 120.135 123.454 120.135L123.454 70.2946C116.929 70.2946 110.468 69.0054 104.44 66.5007C98.4115 63.996 92.9342 60.3248 88.3204 55.6966C83.7066 51.0685 80.0468 45.5742 77.5498 39.5272C75.0529 33.4803 73.7677 26.9993 73.7677 20.4541L24.0817 20.4541Z" fill="#2D91FF"/>
</g>
<defs>
<filter id="filter0_d_125_191" x="0" y="0.454102" width="296" height="297.716" filterUnits="userSpaceOnUse" color-interpolation-filters="sRGB">
<feFlood flood-opacity="0" result="BackgroundImageFix"/>
<feColorMatrix in="SourceAlpha" type="matrix" values="0 0 0 0 0 0 0 0 0 0 0 0 0 0 0 0 0 0 127 0" result="hardAlpha"/>
<feOffset dy="4"/>
<feGaussianBlur stdDeviation="12"/>
<feComposite in2="hardAlpha" operator="out"/>
<feColorMatrix type="matrix" values="0 0 0 0 0.15434 0 0 0 0 0.335987 0 0 0 0 0.529167 0 0 0 1 0"/>
<feBlend mode="normal" in2="BackgroundImageFix" result="effect1_dropShadow_125_191"/>
<feBlend mode="normal" in="SourceGraphic" in2="effect1_dropShadow_125_191" result="shape"/>
</filter>
</defs>
</svg>
