<svg width="296" height="416" viewBox="0 0 296 416" fill="none" xmlns="http://www.w3.org/2000/svg">
<g filter="url(#filter0_d_125_192)">
<path d="M0 400H272L113.718 293.664L0 130.307V400Z" fill="#2D91FF"/>
<path d="M121.954 336.882C135.197 342.361 149.39 345.181 163.724 345.181V290.668C156.557 290.668 149.46 289.258 142.839 286.518C136.218 283.779 130.201 279.764 125.134 274.702C120.066 269.64 116.046 263.63 113.303 257.016C110.561 250.403 109.149 243.314 109.149 236.156C109.149 221.838 106.326 207.661 100.841 194.433C95.3558 181.206 87.3159 169.187 77.1804 159.063C67.045 148.939 55.0125 140.908 41.7699 135.429C28.5273 129.95 14.3339 127.13 0.000266205 127.13L0.000263819 181.643C7.16711 181.643 14.2638 183.053 20.8851 185.792C27.5064 188.532 33.5226 192.547 38.5903 197.609C43.6581 202.671 47.678 208.681 50.4206 215.294C53.1632 221.908 54.5748 228.997 54.5749 236.155C54.5749 250.473 57.3977 264.65 62.883 277.878C68.3682 291.105 76.4081 303.124 86.5436 313.248C96.679 323.372 108.712 331.403 121.954 336.882Z" fill="#2D91FF"/>
<path d="M271.91 399.854C271.91 385.558 269.091 371.401 263.614 358.193C258.137 344.985 250.109 332.984 239.988 322.875C229.868 312.766 217.853 304.747 204.63 299.276C191.407 293.805 177.234 290.989 162.922 290.989V345.421C170.078 345.421 177.164 346.829 183.776 349.565C190.387 352.3 196.395 356.31 201.455 361.364C206.515 366.419 210.529 372.42 213.268 379.024C216.007 385.628 217.416 392.706 217.416 399.854L271.91 399.854Z" fill="#2D91FF"/>
</g>
<path d="M0 0.454102H175L73.1638 68.9819L0 174.257V0.454102Z" fill="#275687"/>
<path d="M78.9373 40.7601C87.5089 37.2137 96.6958 35.3884 105.974 35.3884V70.6729C101.335 70.6729 96.7412 71.5855 92.4555 73.3587C88.1697 75.132 84.2755 77.731 80.9953 81.0075C77.7151 84.2839 75.1132 88.1737 73.3379 92.4546C71.5627 96.7355 70.649 101.324 70.649 105.957L35.3244 105.957C35.3244 96.6901 37.1518 87.5136 40.7022 78.9518C44.2527 70.39 49.4567 62.6105 56.0171 56.0575C62.5774 49.5046 70.3658 44.3065 78.9373 40.7601Z" fill="#275687"/>
<path d="M65.2714 132.963C68.8218 124.401 70.649 115.225 70.649 105.957L35.3244 105.957C35.3244 110.591 34.4109 115.179 32.6357 119.46C30.8605 123.741 28.2585 127.631 24.9783 130.907C21.6981 134.184 17.8039 136.783 13.5181 138.556C9.23237 140.329 4.6389 141.242 0 141.242L1.54409e-06 176.527C9.27779 176.527 18.4647 174.701 27.0363 171.155C35.6079 167.608 43.3962 162.41 49.9566 155.857C56.5169 149.304 61.7209 141.525 65.2714 132.963Z" fill="#275687"/>
<path d="M176 0.454102C176 9.70773 174.175 18.4166 170.63 26.9659C167.085 35.5151 161.888 43.2831 155.338 49.8264C148.787 56.3697 141.01 61.5602 132.451 65.1014C123.892 68.6426 114.719 70.4652 105.455 70.4652V35.2326C110.087 35.2326 114.673 34.3213 118.953 32.5507C123.232 30.7801 127.121 28.1849 130.396 24.9132C133.672 21.6416 136.27 17.7575 138.042 13.4829C139.815 9.2083 140.727 5.08092 140.727 0.454105L176 0.454102Z" fill="#275687"/>
<defs>
<filter id="filter0_d_125_192" x="-24" y="95.1302" width="320" height="320.87" filterUnits="userSpaceOnUse" color-interpolation-filters="sRGB">
<feFlood flood-opacity="0" result="BackgroundImageFix"/>
<feColorMatrix in="SourceAlpha" type="matrix" values="0 0 0 0 0 0 0 0 0 0 0 0 0 0 0 0 0 0 127 0" result="hardAlpha"/>
<feOffset dy="-8"/>
<feGaussianBlur stdDeviation="12"/>
<feComposite in2="hardAlpha" operator="out"/>
<feColorMatrix type="matrix" values="0 0 0 0 0.15434 0 0 0 0 0.335987 0 0 0 0 0.529167 0 0 0 1 0"/>
<feBlend mode="normal" in2="BackgroundImageFix" result="effect1_dropShadow_125_192"/>
<feBlend mode="normal" in="SourceGraphic" in2="effect1_dropShadow_125_192" result="shape"/>
</filter>
</defs>
</svg>
