<svg width="130" height="400" viewBox="0 0 130 400" fill="none" xmlns="http://www.w3.org/2000/svg">
<path d="M130.194 400H12.4727L80.9771 354.158L130.194 283.734V400Z" fill="#275687"/>
<path d="M77.3733 372.746C71.642 375.117 65.4991 376.337 59.2955 376.337V352.744C62.3973 352.744 65.4687 352.134 68.3344 350.949C71.2001 349.763 73.8039 348.025 75.9972 345.834C78.1905 343.643 79.9304 341.043 81.1174 338.18C82.3044 335.318 82.9153 332.25 82.9153 329.152C82.9153 322.955 84.137 316.819 86.511 311.094C88.8851 305.369 92.3647 300.168 96.7513 295.786C101.138 291.404 106.346 287.929 112.077 285.557C117.808 283.186 123.951 281.966 130.155 281.966V305.559C127.053 305.559 123.982 306.169 121.116 307.354C118.25 308.54 115.646 310.278 113.453 312.469C111.26 314.66 109.52 317.26 108.333 320.123C107.146 322.985 106.535 326.053 106.535 329.151C106.535 335.348 105.313 341.484 102.939 347.209C100.565 352.934 97.0856 358.135 92.699 362.517C88.3124 366.899 83.1047 370.374 77.3733 372.746Z" fill="#275687"/>
<path d="M12.4727 400C12.4727 393.812 13.6926 387.686 16.0631 381.969C18.4336 376.253 21.9082 371.059 26.2883 366.683C30.6685 362.308 35.8685 358.838 41.5914 356.47C47.3144 354.102 53.4482 352.883 59.6427 352.883V376.442C56.5454 376.442 53.4785 377.051 50.617 378.235C47.7556 379.419 45.1556 381.154 42.9655 383.342C40.7754 385.529 39.0382 388.126 37.8529 390.985C36.6676 393.843 36.0576 396.906 36.0576 400L12.4727 400Z" fill="#275687"/>
<path d="M130 0.0130194H0L75.6497 51.0605L130 129.481V0.0130194Z" fill="#2D91FF"/>
<path d="M71.713 30.248C65.3838 27.6162 58.6002 26.2616 51.7496 26.2616V52.4462C55.1749 52.4462 58.5667 53.1235 61.7313 54.4394C64.8959 55.7553 67.7713 57.6841 70.1934 60.1155C72.6154 62.547 74.5367 65.4336 75.8476 68.6104C77.1584 71.7873 77.833 75.1922 77.833 78.6308C77.833 85.5081 79.1822 92.3179 81.8039 98.6716C84.4255 105.025 88.2681 110.798 93.1122 115.661C97.9564 120.524 103.707 124.382 110.036 127.014C116.366 129.645 123.149 131 130 131V104.815C126.574 104.815 123.183 104.138 120.018 102.822C116.854 101.506 113.978 99.5776 111.556 97.1461C109.134 94.7147 107.213 91.8281 105.902 88.6512C104.591 85.4744 103.916 82.0694 103.916 78.6308C103.916 71.7536 102.567 64.9437 99.9455 58.59C97.3239 52.2363 93.4813 46.4632 88.6372 41.6002C83.793 36.7373 78.0422 32.8798 71.713 30.248Z" fill="#2D91FF"/>
<path d="M0.0428136 0C0.042813 6.86711 1.39017 13.667 4.00794 20.0113C6.62572 26.3557 10.4627 32.1204 15.2997 36.9762C20.1367 41.8319 25.8791 45.6837 32.199 48.3117C38.5188 50.9396 45.2924 52.2922 52.133 52.2922L52.133 26.1461C48.7127 26.1461 45.3259 25.4698 42.166 24.1558C39.0061 22.8419 36.1349 20.916 33.7164 18.4881C31.2978 16.0602 29.3794 13.1779 28.0705 10.0057C26.7616 6.83349 26.0879 3.43356 26.0879 2.28576e-06L0.0428136 0Z" fill="#2D91FF"/>
</svg>
