<svg width="119" height="400" viewBox="0 0 119 400" fill="none" xmlns="http://www.w3.org/2000/svg">
<path d="M0 400H119L49.7514 353.236L0 281.397V400Z" fill="#2D91FF"/>
<path d="M53.3549 372.242C59.1486 374.652 65.3581 375.892 71.6291 375.892V351.919C68.4936 351.919 65.3888 351.299 62.492 350.094C59.5952 348.889 56.9631 347.124 54.746 344.897C52.5288 342.671 50.7701 340.029 49.5702 337.12C48.3703 334.212 47.7527 331.094 47.7527 327.946C47.7527 321.65 46.5177 315.415 44.1179 309.598C41.7181 303.781 38.2007 298.495 33.7664 294.043C29.3322 289.591 24.068 286.059 18.2743 283.65C12.4807 281.24 6.2711 280 0.000116465 280L0.000115421 303.973C3.13561 303.973 6.2404 304.593 9.13722 305.798C12.034 307.003 14.6662 308.768 16.8833 310.995C19.1004 313.221 20.8591 315.863 22.059 318.772C23.2589 321.681 23.8765 324.798 23.8765 327.946C23.8765 334.242 25.1115 340.477 27.5113 346.294C29.9111 352.111 33.4286 357.397 37.8628 361.849C42.2971 366.301 47.5613 369.833 53.3549 372.242Z" fill="#2D91FF"/>
<path d="M118.961 399.936C118.961 393.649 117.727 387.423 115.331 381.615C112.935 375.806 109.423 370.528 104.995 366.083C100.567 361.637 95.3107 358.11 89.5256 355.704C83.7405 353.299 77.54 352.06 71.2783 352.06V375.998C74.4091 375.998 77.5094 376.617 80.4019 377.82C83.2945 379.023 85.9227 380.786 88.1366 383.009C90.3505 385.232 92.1066 387.871 93.3047 390.775C94.5029 393.679 95.1196 396.792 95.1196 399.936L118.961 399.936Z" fill="#2D91FF"/>
<path d="M0 0H108.424L45.33 42.4577L0 107.682V0Z" fill="#275687"/>
<path d="M48.9071 24.9723C54.2177 22.7751 59.9097 21.6442 65.6579 21.6442V43.5053C62.7838 43.5053 59.9378 44.0708 57.2825 45.1694C54.6271 46.268 52.2144 47.8783 50.1821 49.9083C48.1498 51.9383 46.5377 54.3483 45.4378 57.0006C44.338 59.6529 43.7719 62.4956 43.7719 65.3665L21.8859 65.3665C21.8859 59.6248 23.0181 53.9393 25.2178 48.6347C27.4176 43.33 30.6418 38.5101 34.7064 34.4501C38.771 30.3901 43.5964 27.1696 48.9071 24.9723Z" fill="#275687"/>
<path d="M40.4401 82.0983C42.6398 76.7937 43.7719 71.1082 43.7719 65.3665L21.8859 65.3665C21.8859 68.2373 21.3199 71.0801 20.22 73.7324C19.1202 76.3847 17.5081 78.7947 15.4757 80.8247C13.4434 82.8547 11.0307 84.465 8.37541 85.5636C5.72008 86.6622 2.87411 87.2277 0 87.2277L9.56669e-07 109.089C5.74822 109.089 11.4402 107.958 16.7508 105.761C22.0615 103.563 26.8869 100.343 30.9515 96.2829C35.0161 92.2229 38.2403 87.403 40.4401 82.0983Z" fill="#275687"/>
<path d="M109.044 0C109.044 5.73326 107.913 11.129 105.717 16.4258C103.52 21.7227 100.301 26.5355 96.2423 30.5895C92.1837 34.6436 87.3654 37.8594 82.0625 40.0534C76.7597 42.2474 71.0761 43.3767 65.3363 43.3767V21.5477C68.2062 21.5477 71.048 20.983 73.6994 19.886C76.3509 18.789 78.76 17.1811 80.7893 15.1541C82.8186 13.1271 84.4284 10.7207 85.5266 8.07224C86.6249 5.42382 87.1902 2.86663 87.1902 1.92032e-06L109.044 0Z" fill="#275687"/>
</svg>
