<svg width="505" height="505" viewBox="0 0 505 505" fill="none" xmlns="http://www.w3.org/2000/svg">
<g clip-path="url(#clip0_194_189)">
<path d="M414 124.5H78.5V378.5H414V124.5Z" fill="#252A32"/>
<path d="M377.6 0.199951H126.4C56.8 0.199951 0 57 0 126.6V378.2C0 447.4 56.8 504.2 126.4 504.2H378C447.6 504.2 504.4 447.4 504.4 377.8V126.6C504 57 447.2 0.199951 377.6 0.199951ZM296 160.2H380V180.2H296V160.2ZM256.8 291.8C256.8 354.2 195.2 356.2 195.2 356.2H138.4H136.8H96V148.2H136.4H138H194.8C225.6 148.2 250 165.8 250 202.6C250 239.4 220.4 241.4 220.4 241.4C259.6 241 256.8 291.8 256.8 291.8ZM407.6 288.2H306.4C306.4 328.2 340.8 325 340.8 325C373.2 325 372 304.2 372 304.2H406.4C406.4 360.2 339.6 357.8 339.6 357.8C259.6 357.8 264.8 279 264.8 279C264.8 279 264.8 199.8 339.6 199.8C418.4 199.4 407.6 288.2 407.6 288.2Z" fill="white"/>
<path d="M195.2 184.2H188H140V228.2H191.6C200.8 228.2 208.8 225.8 208.8 204.6C208.8 183.4 195.2 184.2 195.2 184.2Z" fill="white"/>
<path d="M195.2 260.2H140V316.2H188.4C189.2 316.2 190.4 316.2 192 316.2C200 316.2 215.2 313 215.2 289C215.6 260.6 195.2 260.2 195.2 260.2Z" fill="white"/>
<path d="M340.4 228.6C310.4 228.6 306 260.2 306 260.2H370C370 260.2 370.4 228.6 340.4 228.6Z" fill="white"/>
</g>
<defs>
<clipPath id="clip0_194_189">
<rect width="504.4" height="504.4" fill="white"/>
</clipPath>
</defs>
</svg>
