<svg width="48" height="48" viewBox="0 0 48 48" fill="none" xmlns="http://www.w3.org/2000/svg">
<path fill-rule="evenodd" clip-rule="evenodd" d="M33.6778 16.916H27.2661V18.4426H33.6778V16.916ZM19.572 31.8767C19.572 31.8767 24.2739 31.7241 24.2739 26.961C24.2739 26.961 24.4877 23.0835 21.4955 23.114C21.4955 23.114 23.7549 22.9613 23.7549 20.1524C23.7549 17.3434 21.8924 16 19.5414 16H15.2059H15.0837H12V31.8767H15.1143H15.2364H19.572ZM28.0599 26.6863H35.7846C35.7846 26.6863 36.6089 19.9081 30.5941 19.9387C24.8846 19.9387 24.8846 25.984 24.8846 25.984C24.8846 25.984 24.4877 31.9989 30.5941 31.9989C30.5941 31.9989 35.693 32.1821 35.693 27.9075H33.0672C33.0672 27.9075 33.1588 29.4952 30.6857 29.4952C30.6857 29.4952 28.0599 29.7395 28.0599 26.6863ZM19.0224 18.7479H19.572C19.572 18.7479 20.61 18.6868 20.61 20.305C20.61 21.9233 19.9994 22.1064 19.2972 22.1064H15.3585V18.7479H19.0224ZM19.5719 24.549H15.3585V28.8235H19.0529H19.3277C19.9383 28.8235 21.0986 28.5793 21.0986 26.7473C21.1291 24.5795 19.5719 24.549 19.5719 24.549ZM28.0294 24.549C28.0294 24.549 28.3652 22.137 30.6551 22.137C32.9451 22.137 32.9145 24.549 32.9145 24.549H28.0294Z" fill="white"/>
<rect x="1" y="1" width="46" height="46" rx="15" stroke="white" stroke-width="2"/>
</svg>
