<svg width="48" height="48" viewBox="0 0 48 48" fill="none" xmlns="http://www.w3.org/2000/svg">
<rect x="1" y="1" width="46" height="46" rx="15" stroke="white" stroke-width="2"/>
<path d="M18.6684 34H14.0765V20.7347H18.6684V34ZM16.3469 18.6939C15.0459 18.6939 14 17.648 14 16.3469C14 15.0459 15.0459 14 16.3469 14C17.648 14 18.6939 15.0459 18.6939 16.3469C18.6684 17.648 17.6224 18.6939 16.3469 18.6939ZM34 34H33.9745H30.148V27.5714C30.148 26.0153 29.9439 24.0255 27.8265 24.0255C25.6582 24.0255 25.301 25.7092 25.301 27.4694V34H21.4745V20.7347H25.0459V22.5204H25.148C25.7092 21.5 27.0102 20.7092 29.051 20.7092C33.2602 20.7092 34 23.1327 34 26.7296V34Z" fill="white"/>
</svg>
