<svg width="70" height="40" viewBox="0 0 70 40" fill="none" xmlns="http://www.w3.org/2000/svg">
<path fill-rule="evenodd" clip-rule="evenodd" d="M61.548 1.52241C63.9745 0.517316 66.5752 0 69.2017 0V10C67.8884 10 66.5881 10.2587 65.3748 10.7612C64.1616 11.2638 63.0592 12.0003 62.1306 12.9289C61.202 13.8575 60.4654 14.9599 59.9629 16.1732C59.4603 17.3864 59.2017 18.6868 59.2017 20C59.2017 22.6264 58.6843 25.2272 57.6793 27.6537C56.6742 30.0802 55.201 32.285 53.3438 34.1421C51.4866 35.9993 49.2818 37.4725 46.8553 38.4776C44.4288 39.4827 41.8281 40 39.2017 40V30C40.5149 30 41.8152 29.7413 43.0285 29.2388C44.2418 28.7362 45.3441 27.9997 46.2727 27.0711C47.2013 26.1425 47.9379 25.0401 48.4405 23.8268C48.943 22.6136 49.2017 21.3132 49.2017 20C49.2017 17.3736 49.719 14.7728 50.7241 12.3463C51.7292 9.91982 53.2024 7.71504 55.0595 5.85787C56.9167 4.00069 59.1215 2.5275 61.548 1.52241Z" fill="white"/>
<path fill-rule="evenodd" clip-rule="evenodd" d="M39.2017 0H29.2017V20H39.2017V0ZM34.3098 33.1053C37.4648 29.4681 39.2017 24.8149 39.2017 20.0001H29.2017C29.2017 22.4075 28.3332 24.7341 26.7558 26.5527C25.1783 28.3712 22.9977 29.5597 20.6144 29.8998C18.2311 30.2399 15.8052 29.7088 13.782 28.404C11.7588 27.0993 10.2742 25.1084 9.60087 22.7971L0 25.5941C1.34672 30.2168 4.31588 34.1984 8.36225 36.808C12.4086 39.4175 17.2605 40.4797 22.0271 39.7995C26.7936 39.1193 31.1548 36.7424 34.3098 33.1053Z" fill="#2D91FF"/>
</svg>
