<svg width="48" height="48" viewBox="0 0 48 48" fill="none" xmlns="http://www.w3.org/2000/svg">
<rect x="1" y="1" width="46" height="46" rx="15" stroke="white" stroke-width="2"/>
<path d="M23.7888 24.7076L23.9013 24.7785L24.0137 24.7076L34.3102 18.2186V31.6H13.4923V18.2186L23.7888 24.7076ZM11.8294 33.202C12.2403 33.5968 12.7287 33.8 13.2859 33.8H34.5166C35.0738 33.8 35.5623 33.5968 35.9732 33.202C36.3841 32.8072 36.5962 32.337 36.5962 31.8V16.2C36.5962 15.6629 36.3841 15.1928 35.9732 14.7979C35.5623 14.4031 35.0738 14.2 34.5166 14.2H13.2859C12.7287 14.2 12.2403 14.4031 11.8294 14.7979C11.4184 15.1928 11.2063 15.6629 11.2063 16.2V31.8C11.2063 32.337 11.4184 32.8072 11.8294 33.202ZM23.9014 22.502L14.1425 16.4H33.6894L23.9014 22.502Z" fill="white"/>
</svg>
