<svg width="74" height="40" viewBox="0 0 74 40" fill="none" xmlns="http://www.w3.org/2000/svg">
<path fill-rule="evenodd" clip-rule="evenodd" d="M65.5481 1.52241C67.9746 0.517316 70.5753 0 73.2017 0V10C71.8885 10 70.5881 10.2587 69.3749 10.7612C68.1616 11.2638 67.0592 12.0003 66.1307 12.9289C65.2021 13.8575 64.4655 14.9599 63.9629 16.1732C63.4604 17.3864 63.2017 18.6868 63.2017 20C63.2017 22.6264 62.6844 25.2272 61.6793 27.6537C60.6742 30.0802 59.201 32.285 57.3439 34.1421C55.4867 35.9993 53.2819 37.4725 50.8554 38.4776C48.4289 39.4827 45.8282 40 43.2017 40V30C44.5149 30 45.8153 29.7413 47.0286 29.2388C48.2418 28.7362 49.3442 27.9997 50.2728 27.0711C51.2014 26.1425 51.938 25.0401 52.4405 23.8268C52.9431 22.6136 53.2017 21.3132 53.2017 20C53.2017 17.3736 53.719 14.7728 54.7241 12.3463C55.7292 9.91982 57.2024 7.71504 59.0596 5.85787C60.9168 4.00069 63.1215 2.5275 65.5481 1.52241Z" fill="#3776B9"/>
<path fill-rule="evenodd" clip-rule="evenodd" d="M39.2017 0H29.2017V20H39.2017V0ZM34.3098 33.1053C37.4648 29.4681 39.2017 24.8149 39.2017 20.0001H29.2017C29.2017 22.4075 28.3332 24.7341 26.7558 26.5527C25.1783 28.3712 22.9977 29.5597 20.6144 29.8998C18.2311 30.2399 15.8052 29.7088 13.782 28.404C11.7588 27.0993 10.2742 25.1084 9.60087 22.7971L0 25.5941C1.34672 30.2168 4.31588 34.1984 8.36225 36.808C12.4086 39.4175 17.2605 40.4797 22.0271 39.7995C26.7936 39.1193 31.1548 36.7424 34.3098 33.1053Z" fill="#DE9151"/>
</svg>
